<?xml version="1.0" encoding="iso-8859-1"?>
<!-- Generator: Adobe Illustrator 19.0.0, SVG Export Plug-In . SVG Version: 6.00 Build 0)  -->
<svg version="1.1" id="Layer_1" xmlns="http://www.w3.org/2000/svg" xmlns:xlink="http://www.w3.org/1999/xlink" x="0px" y="0px"
	 viewBox="0 0 512.004 512.004" style="enable-background:new 0 0 512.004 512.004;" xml:space="preserve">
<polygon style="fill:#6FB0B6;" points="294.398,140.804 294.398,89.604 243.198,89.604 243.198,12.804 345.598,12.804 
	345.598,140.804 "/>
<rect x="345.598" y="38.404" style="fill:#FF877F;" width="128" height="102.4"/>
<g>
	<rect x="191.998" y="89.604" style="fill:#FEDEA1;" width="102.4" height="51.2"/>
	<path style="fill:#FEDEA1;" d="M409.598,499.204c-28.237,0-51.2-22.963-51.2-51.2s22.963-51.2,51.2-51.2s51.2,22.963,51.2,51.2
		S437.835,499.204,409.598,499.204z"/>
	<path style="fill:#FEDEA1;" d="M153.598,499.204c-28.237,0-51.2-22.963-51.2-51.2s22.963-51.2,51.2-51.2s51.2,22.963,51.2,51.2
		S181.835,499.204,153.598,499.204z"/>
</g>
<polygon style="fill:#A0BF7C;" points="186.016,345.604 156.764,140.804 503.371,140.804 444.849,345.604 "/>
<g>
	<circle style="fill:#573A32;" cx="153.598" cy="448.004" r="12.8"/>
	<circle style="fill:#573A32;" cx="409.598" cy="448.004" r="12.8"/>
	<path style="fill:#573A32;" d="M499.198,435.204h-26.889c-5.931-29.21-31.744-51.2-62.711-51.2c-30.959,0-56.781,21.99-62.711,51.2
		H216.275c-5.726-28.015-29.824-49.229-59.179-50.85l-42.035-283.827c-0.401-2.722-1.673-5.222-3.61-7.177l-89.6-89.6
		C16.851-1.25,8.753-1.25,3.752,3.75s-5.001,13.099,0,18.099l86.613,86.596l41.421,279.62c-24.559,8.951-42.189,32.29-42.189,59.938
		c0,35.345,28.655,64,64,64c30.959,0,56.781-21.99,62.711-51.2h130.577c5.931,29.21,31.753,51.2,62.711,51.2
		s56.781-21.99,62.711-51.2h26.889c7.074,0,12.8-5.726,12.8-12.8C511.998,440.93,506.272,435.204,499.198,435.204z M153.598,486.404
		c-21.171,0-38.4-17.229-38.4-38.4c0-21.171,17.229-38.4,38.4-38.4s38.4,17.229,38.4,38.4
		C191.998,469.175,174.769,486.404,153.598,486.404z M409.598,486.404c-21.171,0-38.4-17.229-38.4-38.4
		c0-21.171,17.229-38.4,38.4-38.4s38.4,17.229,38.4,38.4C447.998,469.175,430.769,486.404,409.598,486.404z"/>
	<path style="fill:#573A32;" d="M171.774,336.422c1.801,12.612,12.604,21.982,25.344,21.982h238.08
		c11.426,0,21.478-7.578,24.619-18.569l51.2-179.2c2.21-7.723,0.657-16.034-4.181-22.443c-4.838-6.417-12.407-10.189-20.437-10.189
		v-102.4h-128v-25.6h-128v76.8h-51.2v51.2h-7.68c-7.424,0-14.473,3.217-19.337,8.823c-4.864,5.606-7.057,13.047-5.999,20.395
		L171.774,336.422z M358.398,51.204h102.4v76.8h-102.4V51.204z M255.998,25.604h76.8v102.4h-25.6v-51.2h-51.2V25.604z
		 M204.798,102.404h76.8v25.6h-76.8V102.404z M486.398,153.604l-51.2,179.2h-238.08l-25.6-179.2H486.398z"/>
</g>
<g>
</g>
<g>
</g>
<g>
</g>
<g>
</g>
<g>
</g>
<g>
</g>
<g>
</g>
<g>
</g>
<g>
</g>
<g>
</g>
<g>
</g>
<g>
</g>
<g>
</g>
<g>
</g>
<g>
</g>
</svg>
